ISO-10303-21;
HEADER;
FILE_DESCRIPTION(('Open CASCADE Model'),'2;1');
FILE_NAME('Open CASCADE Shape Model','2026-10-06T21:13:33',('Author'),(
    'Open CASCADE'),'Open CASCADE STEP processor 7.9','Open CASCADE 7.9'
  ,'Unknown');
FILE_SCHEMA(('AUTOMOTIVE_DESIGN { 1 0 10303 214 1 1 1 1 }'));
ENDSEC;
DATA;
#1 = APPLICATION_PROTOCOL_DEFINITION('international standard',
  'automotive_design',2000,#2);
#2 = APPLICATION_CONTEXT(
  'core data for automotive mechanical design processes');
#3 = SHAPE_DEFINITION_REPRESENTATION(#4,#10);
#4 = PRODUCT_DEFINITION_SHAPE('','',#5);
#5 = PRODUCT_DEFINITION('design','',#6,#9);
#6 = PRODUCT_DEFINITION_FORMATION('','',#7);
#7 = PRODUCT('Open CASCADE STEP translator 7.9 32',
  'Open CASCADE STEP translator 7.9 32','',(#8));
#8 = PRODUCT_CONTEXT('',#2,'mechanical');
#9 = PRODUCT_DEFINITION_CONTEXT('part definition',#2,'design');
#10 = ADVANCED_BREP_SHAPE_REPRESENTATION('',(#11,#15),#140);
#11 = AXIS2_PLACEMENT_3D('',#12,#13,#14);
#12 = CARTESIAN_POINT('',(0.,0.,0.));
#13 = DIRECTION('',(0.,0.,1.));
#14 = DIRECTION('',(1.,0.,-0.));
#15 = MANIFOLD_SOLID_BREP('',#16);
#16 = CLOSED_SHELL('',(#17,#132,#136));
#17 = ADVANCED_FACE('',(#18),#31,.T.);
#18 = FACE_BOUND('',#19,.T.);
#19 = EDGE_LOOP('',(#20,#81,#104,#131));
#20 = ORIENTED_EDGE('',*,*,#21,.F.);
#21 = EDGE_CURVE('',#22,#22,#24,.T.);
#22 = VERTEX_POINT('',#23);
#23 = CARTESIAN_POINT('',(2.449293598295E-15,203.81441295853,1.296E+03)
  );
#24 = SURFACE_CURVE('',#25,(#30,#69),.PCURVE_S1.);
#25 = ELLIPSE('',#26,11.693200837318,10.);
#26 = AXIS2_PLACEMENT_3D('',#27,#28,#29);
#27 = CARTESIAN_POINT('',(0.,192.12121212121,1.296E+03));
#28 = DIRECTION('',(0.,0.,1.));
#29 = DIRECTION('',(0.,1.,-0.));
#30 = PCURVE('',#31,#36);
#31 = CYLINDRICAL_SURFACE('',#32,10.);
#32 = AXIS2_PLACEMENT_3D('',#33,#34,#35);
#33 = CARTESIAN_POINT('',(0.,147.7745257414,1.222827967473E+03));
#34 = DIRECTION('',(0.,0.518301716093,0.855197831554));
#35 = DIRECTION('',(0.,0.855197831554,-0.518301716093));
#36 = DEFINITIONAL_REPRESENTATION('',(#37),#68);
#37 = B_SPLINE_CURVE_WITH_KNOTS('',8,(#38,#39,#40,#41,#42,#43,#44,#45,
    #46,#47,#48,#49,#50,#51,#52,#53,#54,#55,#56,#57,#58,#59,#60,#61,#62,
    #63,#64,#65,#66,#67),.UNSPECIFIED.,.F.,.F.,(9,7,7,7,9),(0.,
    1.570796326795,2.748893571891,4.516039439535,6.28318530718),
  .UNSPECIFIED.);
#38 = CARTESIAN_POINT('',(0.,91.622133261541));
#39 = CARTESIAN_POINT('',(0.196349540849,91.622133261541));
#40 = CARTESIAN_POINT('',(0.392699081698,91.35509825549));
#41 = CARTESIAN_POINT('',(0.589048622547,90.821030512118));
#42 = CARTESIAN_POINT('',(0.785398163396,90.041883264556));
#43 = CARTESIAN_POINT('',(0.981747704246,89.061607571899));
#44 = CARTESIAN_POINT('',(1.178097245096,87.941521917918));
#45 = CARTESIAN_POINT('',(1.374446785946,86.751524418204));
#46 = CARTESIAN_POINT('',(1.718058482432,84.669029287983));
#47 = CARTESIAN_POINT('',(1.865320638069,83.776531701649));
#48 = CARTESIAN_POINT('',(2.012582793706,82.913525364951));
#49 = CARTESIAN_POINT('',(2.159844949343,82.109509401733));
#50 = CARTESIAN_POINT('',(2.30710710498,81.391921466303));
#51 = CARTESIAN_POINT('',(2.454369260617,80.784119226849));
#52 = CARTESIAN_POINT('',(2.601631416254,80.303801471634));
#53 = CARTESIAN_POINT('',(2.969786805347,79.449941059867));
#54 = CARTESIAN_POINT('',(3.190680038799,79.249865009033));
#55 = CARTESIAN_POINT('',(3.411573272264,79.400117147612));
#56 = CARTESIAN_POINT('',(3.632466505686,79.906303450704));
#57 = CARTESIAN_POINT('',(3.853359739176,80.735523686933));
#58 = CARTESIAN_POINT('',(4.07425297262,81.81904846321));
#59 = CARTESIAN_POINT('',(4.29514620608,83.066138389238));
#60 = CARTESIAN_POINT('',(4.736932672991,85.692184836679));
#61 = CARTESIAN_POINT('',(4.957825906441,87.071142811568));
#62 = CARTESIAN_POINT('',(5.17871913991,88.418400894603));
#63 = CARTESIAN_POINT('',(5.399612373338,89.629504821548));
#64 = CARTESIAN_POINT('',(5.620505606817,90.608240436986));
#65 = CARTESIAN_POINT('',(5.841398840265,91.284166601375));
#66 = CARTESIAN_POINT('',(6.062292073724,91.622133261541));
#67 = CARTESIAN_POINT('',(6.28318530718,91.622133261541));
#68 = ( GEOMETRIC_REPRESENTATION_CONTEXT(2) 
PARAMETRIC_REPRESENTATION_CONTEXT() REPRESENTATION_CONTEXT('2D SPACE',''
  ) );
#69 = PCURVE('',#70,#75);
#70 = PLANE('',#71);
#71 = AXIS2_PLACEMENT_3D('',#72,#73,#74);
#72 = CARTESIAN_POINT('',(-500.,-500.,1.296E+03));
#73 = DIRECTION('',(0.,0.,1.));
#74 = DIRECTION('',(1.,0.,0.));
#75 = DEFINITIONAL_REPRESENTATION('',(#76),#80);
#76 = ELLIPSE('',#77,11.693200837318,10.);
#77 = AXIS2_PLACEMENT_2D('',#78,#79);
#78 = CARTESIAN_POINT('',(500.,692.12121212121));
#79 = DIRECTION('',(0.,1.));
#80 = ( GEOMETRIC_REPRESENTATION_CONTEXT(2) 
PARAMETRIC_REPRESENTATION_CONTEXT() REPRESENTATION_CONTEXT('2D SPACE',''
  ) );
#81 = ORIENTED_EDGE('',*,*,#82,.F.);
#82 = EDGE_CURVE('',#83,#22,#85,.T.);
#83 = VERTEX_POINT('',#84);
#84 = CARTESIAN_POINT('',(2.449293598295E-15,156.32650405694,
    1.217644950312E+03));
#85 = SEAM_CURVE('',#86,(#90,#97),.PCURVE_S1.);
#86 = LINE('',#87,#88);
#87 = CARTESIAN_POINT('',(2.449293598295E-15,156.32650405694,
    1.217644950312E+03));
#88 = VECTOR('',#89,1.);
#89 = DIRECTION('',(2.263214802182E-33,0.518301716093,0.855197831554));
#90 = PCURVE('',#31,#91);
#91 = DEFINITIONAL_REPRESENTATION('',(#92),#96);
#92 = LINE('',#93,#94);
#93 = CARTESIAN_POINT('',(6.28318530718,-0.));
#94 = VECTOR('',#95,1.);
#95 = DIRECTION('',(0.,1.));
#96 = ( GEOMETRIC_REPRESENTATION_CONTEXT(2) 
PARAMETRIC_REPRESENTATION_CONTEXT() REPRESENTATION_CONTEXT('2D SPACE',''
  ) );
#97 = PCURVE('',#31,#98);
#98 = DEFINITIONAL_REPRESENTATION('',(#99),#103);
#99 = LINE('',#100,#101);
#100 = CARTESIAN_POINT('',(0.,-0.));
#101 = VECTOR('',#102,1.);
#102 = DIRECTION('',(0.,1.));
#103 = ( GEOMETRIC_REPRESENTATION_CONTEXT(2) 
PARAMETRIC_REPRESENTATION_CONTEXT() REPRESENTATION_CONTEXT('2D SPACE',''
  ) );
#104 = ORIENTED_EDGE('',*,*,#105,.T.);
#105 = EDGE_CURVE('',#83,#83,#106,.T.);
#106 = SURFACE_CURVE('',#107,(#112,#119),.PCURVE_S1.);
#107 = CIRCLE('',#108,10.);
#108 = AXIS2_PLACEMENT_3D('',#109,#110,#111);
#109 = CARTESIAN_POINT('',(0.,147.7745257414,1.222827967473E+03));
#110 = DIRECTION('',(0.,0.518301716093,0.855197831554));
#111 = DIRECTION('',(0.,0.855197831554,-0.518301716093));
#112 = PCURVE('',#31,#113);
#113 = DEFINITIONAL_REPRESENTATION('',(#114),#118);
#114 = LINE('',#115,#116);
#115 = CARTESIAN_POINT('',(0.,0.));
#116 = VECTOR('',#117,1.);
#117 = DIRECTION('',(1.,0.));
#118 = ( GEOMETRIC_REPRESENTATION_CONTEXT(2) 
PARAMETRIC_REPRESENTATION_CONTEXT() REPRESENTATION_CONTEXT('2D SPACE',''
  ) );
#119 = PCURVE('',#120,#125);
#120 = PLANE('',#121);
#121 = AXIS2_PLACEMENT_3D('',#122,#123,#124);
#122 = CARTESIAN_POINT('',(0.,147.7745257414,1.222827967473E+03));
#123 = DIRECTION('',(0.,0.518301716093,0.855197831554));
#124 = DIRECTION('',(0.,0.855197831554,-0.518301716093));
#125 = DEFINITIONAL_REPRESENTATION('',(#126),#130);
#126 = CIRCLE('',#127,10.);
#127 = AXIS2_PLACEMENT_2D('',#128,#129);
#128 = CARTESIAN_POINT('',(0.,0.));
#129 = DIRECTION('',(1.,0.));
#130 = ( GEOMETRIC_REPRESENTATION_CONTEXT(2) 
PARAMETRIC_REPRESENTATION_CONTEXT() REPRESENTATION_CONTEXT('2D SPACE',''
  ) );
#131 = ORIENTED_EDGE('',*,*,#82,.T.);
#132 = ADVANCED_FACE('',(#133),#70,.T.);
#133 = FACE_BOUND('',#134,.T.);
#134 = EDGE_LOOP('',(#135));
#135 = ORIENTED_EDGE('',*,*,#21,.T.);
#136 = ADVANCED_FACE('',(#137),#120,.F.);
#137 = FACE_BOUND('',#138,.T.);
#138 = EDGE_LOOP('',(#139));
#139 = ORIENTED_EDGE('',*,*,#105,.F.);
#140 = ( GEOMETRIC_REPRESENTATION_CONTEXT(3) 
GLOBAL_UNCERTAINTY_ASSIGNED_CONTEXT((#144)) GLOBAL_UNIT_ASSIGNED_CONTEXT
((#141,#142,#143)) REPRESENTATION_CONTEXT('Context #1',
  '3D Context with UNIT and UNCERTAINTY') );
#141 = ( LENGTH_UNIT() NAMED_UNIT(*) SI_UNIT(.MILLI.,.METRE.) );
#142 = ( NAMED_UNIT(*) PLANE_ANGLE_UNIT() SI_UNIT($,.RADIAN.) );
#143 = ( NAMED_UNIT(*) SI_UNIT($,.STERADIAN.) SOLID_ANGLE_UNIT() );
#144 = UNCERTAINTY_MEASURE_WITH_UNIT(LENGTH_MEASURE(1.E-07),#141,
  'distance_accuracy_value','confusion accuracy');
#145 = PRODUCT_RELATED_PRODUCT_CATEGORY('part',$,(#7));
ENDSEC;
END-ISO-10303-21;
